<mxfile host="app.diagrams.net">
  <diagram id="UPI_HLD" name="UPI NPCI HLD">
    <mxGraphModel dx="1180" dy="740" grid="1" gridSize="10" guides="1" tooltips="1" connect="1" arrows="1" fold="1" page="1" pageScale="1" pageWidth="2970" pageHeight="2100" math="0" shadow="0">
      <root>
        <mxCell id="0"/>
        <mxCell id="1" parent="0"/>

        <!-- Clients -->
        <mxCell id="mobileApp" value="Mobile App" style="rounded=1;fillColor=#dae8fc;strokeColor=#6c8ebf;" vertex="1" parent="1">
          <mxGeometry x="50" y="100" width="120" height="60" as="geometry"/>
        </mxCell>
        <mxCell id="webApp" value="Merchant Web/App" style="rounded=1;fillColor=#dae8fc;strokeColor=#6c8ebf;" vertex="1" parent="1">
          <mxGeometry x="50" y="200" width="140" height="60" as="geometry"/>
        </mxCell>
        <mxCell id="posQr" value="POS / QR" style="rounded=1;fillColor=#dae8fc;strokeColor=#6c8ebf;" vertex="1" parent="1">
          <mxGeometry x="50" y="300" width="120" height="60" as="geometry"/>
        </mxCell>

        <!-- Gateway -->
        <mxCell id="cdn" value="CDN" style="rounded=1;fillColor=#fff2cc;strokeColor=#d6b656;" vertex="1" parent="1">
          <mxGeometry x="250" y="180" width="100" height="60" as="geometry"/>
        </mxCell>
        <mxCell id="apiGateway" value="API Gateway / WAF" style="rounded=1;fillColor=#fff2cc;strokeColor=#d6b656;" vertex="1" parent="1">
          <mxGeometry x="400" y="180" width="160" height="60" as="geometry"/>
        </mxCell>
        <mxCell id="auth" value="AuthN/AuthZ" style="rounded=1;fillColor=#fff2cc;strokeColor=#d6b656;" vertex="1" parent="1">
          <mxGeometry x="600" y="180" width="120" height="60" as="geometry"/>
        </mxCell>

        <!-- Core Services -->
        <mxCell id="txSvc" value="Transaction Service" style="rounded=1;fillColor=#d5e8d4;strokeColor=#82b366;" vertex="1" parent="1">
          <mxGeometry x="800" y="100" width="160" height="60" as="geometry"/>
        </mxCell>
        <mxCell id="accountSvc" value="Account Service" style="rounded=1;fillColor=#d5e8d4;strokeColor=#82b366;" vertex="1" parent="1">
          <mxGeometry x="800" y="180" width="160" height="60" as="geometry"/>
        </mxCell>
        <mxCell id="fraudSvc" value="Fraud / Risk Service" style="rounded=1;fillColor=#d5e8d4;strokeColor=#82b366;" vertex="1" parent="1">
          <mxGeometry x="800" y="260" width="160" height="60" as="geometry"/>
        </mxCell>
        <mxCell id="notifSvc" value="Notification Service" style="rounded=1;fillColor=#d5e8d4;strokeColor=#82b366;" vertex="1" parent="1">
          <mxGeometry x="800" y="340" width="160" height="60" as="geometry"/>
        </mxCell>
        <mxCell id="merchantSvc" value="Merchant Service" style="rounded=1;fillColor=#d5e8d4;strokeColor=#82b366;" vertex="1" parent="1">
          <mxGeometry x="800" y="420" width="160" height="60" as="geometry"/>
        </mxCell>
        <mxCell id="reconSvc" value="Reconciliation / Settlement Service" style="rounded=1;fillColor=#d5e8d4;strokeColor=#82b366;" vertex="1" parent="1">
          <mxGeometry x="800" y="500" width="200" height="60" as="geometry"/>
        </mxCell>

        <!-- Infra -->
        <mxCell id="kafka" value="Kafka (Events)" style="rounded=1;fillColor=#f8cecc;strokeColor=#b85450;" vertex="1" parent="1">
          <mxGeometry x="1050" y="220" width="140" height="60" as="geometry"/>
        </mxCell>
        <mxCell id="redis" value="Redis (Cache)" style="rounded=1;fillColor=#f8cecc;strokeColor=#b85450;" vertex="1" parent="1">
          <mxGeometry x="1050" y="300" width="140" height="60" as="geometry"/>
        </mxCell>
        <mxCell id="mysql" value="MySQL (Relational)" style="rounded=1;fillColor=#f8cecc;strokeColor=#b85450;" vertex="1" parent="1">
          <mxGeometry x="1050" y="380" width="140" height="60" as="geometry"/>
        </mxCell>
        <mxCell id="nosql" value="NoSQL (Transactions/Logs)" style="rounded=1;fillColor=#f8cecc;strokeColor=#b85450;" vertex="1" parent="1">
          <mxGeometry x="1050" y="460" width="180" height="60" as="geometry"/>
        </mxCell>

        <!-- NPCI & Banks -->
        <mxCell id="npci" value="NPCI UPI Switch" style="rounded=1;fillColor=#e1d5e7;strokeColor=#9673a6;" vertex="1" parent="1">
          <mxGeometry x="1300" y="260" width="160" height="60" as="geometry"/>
        </mxCell>
        <mxCell id="issuer" value="Issuer Bank" style="rounded=1;fillColor=#e1d5e7;strokeColor=#9673a6;" vertex="1" parent="1">
          <mxGeometry x="1500" y="200" width="140" height="60" as="geometry"/>
        </mxCell>
        <mxCell id="acquirer" value="Acquirer Bank" style="rounded=1;fillColor=#e1d5e7;strokeColor=#9673a6;" vertex="1" parent="1">
          <mxGeometry x="1500" y="320" width="140" height="60" as="geometry"/>
        </mxCell>

        <!-- Edges -->
        <mxCell id="e1" edge="1" source="mobileApp" target="cdn" parent="1"><mxGeometry relative="1" as="geometry"/></mxCell>
        <mxCell id="e2" edge="1" source="webApp" target="cdn" parent="1"><mxGeometry relative="1" as="geometry"/></mxCell>
        <mxCell id="e3" edge="1" source="posQr" target="cdn" parent="1"><mxGeometry relative="1" as="geometry"/></mxCell>
        <mxCell id="e4" edge="1" source="cdn" target="apiGateway" parent="1"><mxGeometry relative="1" as="geometry"/></mxCell>
        <mxCell id="e5" edge="1" source="apiGateway" target="auth" parent="1"><mxGeometry relative="1" as="geometry"/></mxCell>
        <mxCell id="e6" edge="1" source="auth" target="txSvc" parent="1"><mxGeometry relative="1" as="geometry"/></mxCell>
        <mxCell id="e7" edge="1" source="auth" target="accountSvc" parent="1"><mxGeometry relative="1" as="geometry"/></mxCell>
        <mxCell id="e8" edge="1" source="auth" target="fraudSvc" parent="1"><mxGeometry relative="1" as="geometry"/></mxCell>
        <mxCell id="e9" edge="1" source="auth" target="notifSvc" parent="1"><mxGeometry relative="1" as="geometry"/></mxCell>
        <mxCell id="e10" edge="1" source="auth" target="merchantSvc" parent="1"><mxGeometry relative="1" as="geometry"/></mxCell>
        <mxCell id="e11" edge="1" source="auth" target="reconSvc" parent="1"><mxGeometry relative="1" as="geometry"/></mxCell>

        <mxCell id="e12" edge="1" source="txSvc" target="kafka" parent="1"><mxGeometry relative="1" as="geometry"/></mxCell>
        <mxCell id="e13" edge="1" source="accountSvc" target="mysql" parent="1"><mxGeometry relative="1" as="geometry"/></mxCell>
        <mxCell id="e14" edge="1" source="fraudSvc" target="redis" parent="1"><mxGeometry relative="1" as="geometry"/></mxCell>
        <mxCell id="e15" edge="1" source="reconSvc" target="nosql" parent="1"><mxGeometry relative="1" as="geometry"/></mxCell>

        <mxCell id="e16" edge="1" source="kafka" target="npci" parent="1"><mxGeometry relative="1" as="geometry"/></mxCell>
        <mxCell id="e17" edge="1" source="npci" target="issuer" parent="1"><mxGeometry relative="1" as="geometry"/></mxCell>
        <mxCell id="e18" edge="1" source="npci" target="acquirer" parent="1"><mxGeometry relative="1" as="geometry"/></mxCell>
      </root>
    </mxGraphModel>
  </diagram>
</mxfile>
